<svg width="123" height="30" viewBox="0 0 123 30" fill="none" xmlns="http://www.w3.org/2000/svg">
<path d="M6.1949 4.83453H2.2049V6.87453H13.9649V4.83453H10.0949V4.23453H14.7449V2.16453H10.0949V0.994531H6.1949V2.16453H1.3649V4.23453H6.1949V4.83453ZM17.5949 14.5845C18.8549 14.3145 20.0249 13.9845 21.0749 13.5645C22.1549 13.9845 23.2949 14.3445 24.5849 14.5845H17.5949ZM19.9049 18.2145H9.6449V17.5245H19.9049V18.2145ZM9.6449 24.4845V23.8245H19.9049V24.4845H9.6449ZM19.9049 21.3645H9.6449V20.6745H19.9049V21.3645ZM22.3349 9.27453C21.9149 9.66453 21.4049 10.0245 20.8349 10.3245C20.2649 10.0245 19.7549 9.66453 19.3649 9.27453H22.3349ZM21.7949 4.32453C21.8549 5.79453 22.1849 6.72453 23.4449 7.05453H18.2249C19.1549 6.24453 19.6049 5.31453 19.7849 4.32453H21.7949ZM6.7049 9.45453V10.6245H5.6549C5.6849 10.2345 5.6849 9.87453 5.6849 9.51453V9.45453H6.7049ZM10.8149 10.6245H9.6749V9.45453H10.8149V10.6245ZM25.8149 7.20453H26.5049C27.1049 7.20453 27.8849 7.17453 28.3049 6.99453C28.1849 6.15453 28.1549 5.31453 28.0949 4.44453C27.7049 4.59453 26.8349 4.65453 26.4149 4.65453H25.7249C25.2749 4.65453 25.2449 4.35453 25.2449 3.84453V1.56453H16.6349V3.06453C16.6349 4.08453 16.3349 4.92453 13.9949 5.70453C14.3549 5.94453 14.8949 6.51453 15.3749 7.05453H15.3449V9.27453H17.7749L16.0649 9.72453C16.5149 10.3845 17.0549 10.9545 17.6549 11.4945C16.5749 11.7645 15.4049 11.9445 14.1449 12.0645C14.6849 12.6645 15.2849 13.7445 15.6449 14.5845H4.3649C4.7849 13.9845 5.0849 13.2945 5.2949 12.6045H14.1149V7.47453H2.4449V9.42453C2.4449 10.7145 2.2649 12.3045 0.704902 13.6245C1.1549 13.8045 1.8449 14.1945 2.5049 14.5845H2.1449V17.5245H5.4149V24.4845H1.3049V27.4245H19.9049V29.4945H24.2249V27.4245H28.1849V24.4845H24.2249V17.5245H27.4049V14.5845H26.6249C27.0749 13.7445 27.8549 12.6345 28.4849 12.0345C27.0749 11.9445 25.7549 11.7945 24.5549 11.5545C25.7249 10.5345 26.6549 9.30453 27.3149 7.71453L25.8149 7.20453ZM37.7849 7.71453H44.3849V8.43453H37.7849V7.71453ZM37.7849 4.59453H44.3849V5.31453H37.7849V4.59453ZM49.7249 12.0345H43.6649C43.5149 11.6745 43.3349 11.3145 43.1549 10.9845H48.7049V7.77453C49.7249 8.58453 50.8349 9.72453 51.4649 10.5645C54.3749 8.73453 57.3149 6.12453 59.4149 3.12453L55.2749 1.47453C53.8649 3.75453 51.1349 6.00453 48.7049 7.35453V2.04453H33.6749V10.9845H41.0849L38.7749 11.4345C38.8649 11.6145 38.9549 11.8245 39.0449 12.0345H32.4149V15.3045H49.7249V12.0345ZM55.9049 9.66453C54.3149 12.1545 51.1349 14.6445 48.5249 16.0845C49.6049 16.8945 50.8649 18.1845 51.5249 19.1445C54.5249 17.1945 57.6749 14.4345 59.8949 11.3145L55.9049 9.66453ZM43.1549 23.5245V22.5045H45.5249L43.1549 23.5245ZM35.6849 22.5045H38.8949V25.7445C38.8949 26.0145 38.8049 26.1045 38.5049 26.1045C38.2949 26.1045 37.7249 26.1045 37.1549 26.1045C37.6949 25.2045 38.1749 24.2445 38.5649 23.3745L35.6849 22.5045ZM38.2949 18.7545H43.9649V19.7745H38.2949V18.7545ZM48.1949 22.5045V15.9945H34.2749V22.5045H34.9049C34.3049 23.8845 33.3449 25.4145 32.4149 26.4645C33.2249 27.0045 34.6649 28.1145 35.3249 28.7445C35.8049 28.1745 36.3449 27.3945 36.8549 26.5845C37.2449 27.4845 37.6349 28.6245 37.7849 29.5245C39.3749 29.5245 40.6949 29.4945 41.7749 28.9845C42.9149 28.4445 43.1549 27.5745 43.1549 25.8645V23.7345C43.9949 25.3245 44.9249 27.4245 45.3149 28.7145L48.5549 27.2145C48.1349 25.9545 47.1149 24.0345 46.2449 22.5045H48.1949ZM56.3549 17.9145C54.6449 21.3045 51.3449 24.1545 48.0149 25.8045C49.0949 26.7045 50.3549 28.1445 51.0149 29.2245C54.8249 26.9145 58.1849 23.6145 60.4049 19.3845L56.3549 17.9145ZM69.0749 5.22453C67.8749 8.79453 65.8349 12.7845 63.8549 15.2145C64.9049 15.6645 66.7949 16.6545 67.6649 17.2845C69.5249 14.5845 71.7449 10.2645 73.2149 6.33453L69.0749 5.22453ZM82.7549 6.90453C84.7049 10.1145 87.0749 14.4945 88.1249 17.2245L91.8749 15.0045C90.6749 12.3045 88.3349 8.22453 86.2949 5.04453L82.7549 6.90453ZM84.4349 16.5345C80.7449 22.8045 73.3049 24.6045 63.3149 25.2645C64.1249 26.3745 64.9649 28.1445 65.3249 29.4345C76.1549 28.2945 84.0749 25.8045 88.4549 18.2745L84.4349 16.5345ZM75.2549 1.05453V19.9545H79.6049V1.05453H75.2549ZM113.595 12.0945C112.635 14.9145 111.375 17.1345 109.725 18.8745C108.165 18.1845 106.575 17.4945 105.015 16.8345C105.615 15.3945 106.275 13.7745 106.905 12.0945H113.595ZM122.985 25.3245C120.735 24.1245 117.675 22.5945 114.285 20.9745C116.145 18.6645 117.555 15.7545 118.605 12.0945H122.865V7.38453H119.745C119.865 6.75453 119.955 6.09453 120.075 5.43453L115.395 4.35453C115.245 5.40453 115.065 6.42453 114.855 7.38453H108.555C109.185 5.43453 109.755 3.45453 110.175 1.53453L105.465 0.87453C104.955 2.97453 104.295 5.16453 103.515 7.38453H95.8349V12.0945H101.685C100.635 14.6145 99.4949 16.9845 98.4149 18.9045C100.785 19.8645 103.185 20.9145 105.495 22.0245C102.765 23.4645 99.3149 24.3945 95.0249 25.0545C96.0449 26.1945 97.1249 28.0245 97.6049 29.3145C103.035 28.2645 107.235 26.7945 110.505 24.5145C114.075 26.3445 117.255 28.1445 119.595 29.5545L122.985 25.3245Z" fill="#E9706E"/>
</svg>
