<svg width="44" height="38" viewBox="0 0 44 38" fill="none" xmlns="http://www.w3.org/2000/svg">
<path d="M35.0392 16.935C35.0392 14.9424 33.5772 13.276 31.64 12.875C32.414 11.6262 32.8892 10.1821 32.8892 8.62375C32.8892 4.0401 29.0321 0.3125 24.2892 0.3125C21.0276 0.3125 18.224 2.09319 16.7642 4.68422C15.3043 2.09319 12.5007 0.3125 9.23916 0.3125C4.49626 0.3125 0.63916 4.0401 0.63916 8.62375C0.63916 10.4979 1.30996 12.2121 2.39571 13.6022C1.85302 13.9857 1.41128 14.4872 1.10614 15.0661C0.801006 15.6451 0.641039 16.2853 0.63916 16.935V33.5575C0.63916 35.8493 2.56771 37.7131 4.93916 37.7131H30.7392C33.1106 37.7131 35.0392 35.8493 35.0392 33.5575V28.0762L43.6392 32.2319V17.6872L35.0392 21.8428V16.935ZM24.2892 4.46812C26.6606 4.46812 28.5892 6.33192 28.5892 8.62375C28.5892 10.9156 26.6606 12.7794 24.2892 12.7794C21.9177 12.7794 19.9892 10.9156 19.9892 8.62375C19.9892 6.33192 21.9177 4.46812 24.2892 4.46812ZM9.23916 4.46812C11.6106 4.46812 13.5392 6.33192 13.5392 8.62375C13.5392 10.9156 11.6106 12.7794 9.23916 12.7794C6.86771 12.7794 4.93916 10.9156 4.93916 8.62375C4.93916 6.33192 6.86771 4.46812 9.23916 4.46812ZM4.93916 33.5575V16.935H30.7392L30.7435 33.5575H4.93916Z" fill="#E9706E"/>
</svg>
