<svg width="31" height="51" viewBox="0 0 31 51" fill="none" xmlns="http://www.w3.org/2000/svg">
<path d="M0 44.0625C0 47.5143 2.79822 50.3125 6.25 50.3125H24.75C28.2018 50.3125 31 47.5143 31 44.0625C31 39.375 29.3208 35.3385 25.9625 31.9531C27.125 31.6927 27.9646 31.3672 28.4813 30.9766C30.1604 29.8047 31 27.9167 31 25.3125C31 20.8854 29.6115 16.5234 26.8344 12.2266V11.7383C26.8344 8.61328 25.7203 5.92773 23.4922 3.68164C21.2641 1.43555 18.6 0.3125 15.5 0.3125C12.4 0.3125 9.71979 1.43555 7.45937 3.68164C5.19896 5.92773 4.06875 8.61328 4.06875 11.7383V12.2266C1.35625 16.849 0 21.2109 0 25.3125C0 27.6562 0.807292 29.5443 2.42188 30.9766C3.06771 31.3672 3.90729 31.6927 4.94063 31.9531C1.64688 35.2734 0 39.3099 0 44.0625ZM8.23438 11.7383C8.23438 11.1523 8.36354 10.4688 8.62187 9.6875C12.3677 12.6823 17.05 14.4076 22.6688 14.8633V15.9375C22.6688 17.9557 21.9583 19.681 20.5375 21.1133C19.1167 22.5456 17.4375 23.2617 15.5 23.2617C13.4979 23.2617 11.7865 22.5456 10.3656 21.1133C8.94479 19.681 8.23438 17.9557 8.23438 15.9375V11.7383ZM14.4344 30.4883V27.3633H16.4688V30.4883C16.4688 31.2044 16.1458 31.5625 15.5 31.5625C14.7896 31.5625 14.4344 31.2044 14.4344 30.4883ZM25.9625 27.5586C25.2521 27.9492 24.4448 28.112 23.5406 28.0469C22.6365 27.9818 21.8615 27.819 21.2156 27.5586L20.8281 28.6328C20.699 28.6328 20.5698 28.5677 20.4406 28.4375V26.1914C23.024 24.8242 24.8 22.806 25.7688 20.1367C26.35 21.8945 26.6406 23.6198 26.6406 25.3125C26.7698 26.4193 26.5438 27.168 25.9625 27.5586ZM22.475 10.7617C17.5021 10.3711 13.5948 8.90625 10.7531 6.36719C12.174 5.13021 13.7563 4.51172 15.5 4.51172C17.2437 4.51172 18.7938 5.11393 20.15 6.31836C21.5063 7.52279 22.2813 9.00391 22.475 10.7617ZM4.06875 25.3125C4.06875 24.3359 4.35938 22.6107 4.94063 20.1367C6.16771 22.9362 7.94375 24.9544 10.2688 26.1914V28.4375C10.1396 28.4375 10.0104 28.5026 9.88125 28.6328L9.49375 27.5586C7.55625 28.4049 5.97396 28.4049 4.74688 27.5586V27.4609C4.68229 27.3958 4.60156 27.2982 4.50469 27.168C4.40781 27.0378 4.32708 26.9076 4.2625 26.7773C4.19792 26.6471 4.14948 26.4518 4.11719 26.1914C4.0849 25.931 4.06875 25.638 4.06875 25.3125ZM4.06875 44.0625C4.06875 41.7188 4.69844 39.5215 5.95781 37.4707C7.21719 35.4199 8.88021 33.8737 10.9469 32.832C11.851 34.7852 13.3687 35.7617 15.5 35.7617C17.5021 35.7617 19.0198 34.7852 20.0531 32.832C21.9906 33.8737 23.6052 35.4362 24.8969 37.5195C26.1885 39.6029 26.8344 41.7839 26.8344 44.0625C26.8344 45.1951 25.9162 46.1133 24.7836 46.1133H6.11953C4.98692 46.1133 4.06875 45.1951 4.06875 44.0625Z" fill="#E9706E"/>
</svg>
