<svg width="44" height="41" viewBox="0 0 44 41" fill="none" xmlns="http://www.w3.org/2000/svg">
<path d="M30.137 1.00073C28.446 1.01822 26.7115 1.35041 25.0145 2.03179L24.9375 2.06468L24.8604 2.1046C23.7847 2.65568 22.8043 3.34505 21.9327 4.16202C17.2418 0.0808108 9.77386 -0.215394 4.6647 4.41802L4.61332 4.46499L4.56663 4.51431C0.084667 9.2236 0.189632 16.4761 2.87623 22.2067L2.89958 22.2513L2.92292 22.2983C6.08706 28.1924 11.9955 33.2005 17.3798 37.3179L17.3938 37.3296L17.4055 37.339C17.7519 37.5945 18.3475 38.1227 19.0351 38.6425C19.7228 39.1624 20.4995 39.7321 21.6361 39.9507L21.8906 40L22.1474 39.9788C23.3403 39.8754 23.8082 39.4323 24.5919 38.9361C25.3756 38.4398 26.2431 37.8099 27.1345 37.1206C28.8915 35.7617 30.7096 34.1955 31.9068 33.0786C31.9222 33.0642 31.9476 33.0435 31.9628 33.0292C31.9653 33.0271 31.9673 33.0243 31.9698 33.0222C34.4916 30.8575 36.9896 28.362 39.1072 25.4267L39.1095 25.4244C39.1135 25.419 39.1172 25.4133 39.1212 25.4079C42.4796 20.8593 44.1087 14.7295 42.1657 8.69027L42.1307 8.58221L42.084 8.4812C39.9024 3.73678 35.2102 0.948301 30.137 1.00073ZM30.1977 4.7163C33.8529 4.63173 37.0568 6.60056 38.6473 9.96786C40.1169 14.6821 38.8465 19.4853 36.1093 23.1837L36.1023 23.1931L36.0954 23.2025C34.1886 25.8495 31.8793 28.1664 29.4856 30.2156L29.4553 30.2438L29.4249 30.272C28.347 31.2813 26.5226 32.8535 24.8558 34.1425C24.0224 34.7871 23.2234 35.363 22.6027 35.7561C22.3694 35.9038 22.1475 36.0046 21.9653 36.0825C21.7739 35.9773 21.531 35.8292 21.2789 35.6386C20.7714 35.255 20.231 34.7652 19.6422 34.3281C19.6331 34.321 19.6234 34.314 19.6142 34.3069C14.3889 30.3089 8.88497 25.4544 6.2383 20.5603C4.08961 15.9426 4.18338 10.4157 7.2189 7.16826C11.3463 3.47663 17.4782 4.27919 20.5364 8.06779L22.026 9.91149L23.4666 8.03022C24.2954 6.94853 25.2846 6.12159 26.4854 5.49369C27.7441 4.99906 28.9947 4.74412 30.1977 4.7163Z" fill="#E9706E" stroke="#E9706E" stroke-width="1.5"/>
</svg>
