<svg width="44" height="53" viewBox="0 0 44 53" fill="none" xmlns="http://www.w3.org/2000/svg">
<path d="M21.6429 16.3799L11.5068 26.5265L21.6429 36.6732L31.7789 26.5265L21.6429 16.3799Z" fill="#E9706E"/>
<path fill-rule="evenodd" clip-rule="evenodd" d="M0.142578 7.39583C0.142578 5.49313 0.897636 3.66835 2.24165 2.32294C3.58566 0.977526 5.40853 0.22168 7.30924 0.22168H35.9759C37.8766 0.22168 39.6995 0.977526 41.0435 2.32294C42.3875 3.66835 43.1426 5.49313 43.1426 7.39583V45.658C43.1426 47.5607 42.3875 49.3855 41.0435 50.7309C39.6995 52.0763 37.8766 52.8321 35.9759 52.8321H7.30924C5.40853 52.8321 3.58566 52.0763 2.24165 50.7309C0.897636 49.3855 0.142578 47.5607 0.142578 45.658V7.39583ZM7.30924 5.00445H35.9759C36.6095 5.00445 37.2171 5.2564 37.6651 5.70487C38.1131 6.15334 38.3648 6.7616 38.3648 7.39583V45.658C38.3648 46.2922 38.1131 46.9005 37.6651 47.3489C37.2171 47.7974 36.6095 48.0494 35.9759 48.0494H7.30924C6.67567 48.0494 6.06805 47.7974 5.62005 47.3489C5.17204 46.9005 4.92036 46.2922 4.92036 45.658V7.39583C4.92036 6.7616 5.17204 6.15334 5.62005 5.70487C6.06805 5.2564 6.67567 5.00445 7.30924 5.00445Z" fill="#E9706E"/>
</svg>
