<svg width="44" height="44" viewBox="0 0 44 44" fill="none" xmlns="http://www.w3.org/2000/svg">
<path d="M38.3648 0.28418H4.92036C2.28541 0.28418 0.142578 2.42925 0.142578 5.06695V38.5463C0.142578 41.184 2.28541 43.3291 4.92036 43.3291H38.3648C40.9997 43.3291 43.1426 41.184 43.1426 38.5463V5.06695C43.1426 2.42925 40.9997 0.28418 38.3648 0.28418ZM14.4759 19.4153V5.06695H28.8092V19.4153H14.4759ZM28.8092 24.198V38.5463H14.4759V24.198H28.8092ZM4.92036 5.06695H9.69813V9.84972H4.92036V5.06695ZM4.92036 14.6325H9.69813V19.4153H4.92036V14.6325ZM4.92036 24.198H9.69813V28.9808H4.92036V24.198ZM4.92036 33.7636H9.69813V38.5463H4.92036V33.7636ZM38.3696 38.5463H33.587V33.7636H38.3696V38.5463ZM38.3672 28.9808H33.587V24.198H38.3672V28.9808ZM38.3672 19.4153H33.587V14.6325H38.3672V19.4153ZM33.587 9.84972V5.06695H38.3648V9.84972H33.587Z" fill="#E9706E"/>
</svg>
