<svg class='vector1' width="29" height="22" viewBox="0 0 29 22" fill="none" xmlns="http://www.w3.org/2000/svg">
    <path d="M15.0342 19.2693C15.0342 19.6214 14.9384 19.9666 14.7575 20.2665C14.5767 20.5665 14.3177 20.8095 14.0095 20.9685C13.7013 21.1275 13.3558 21.1963 13.0115 21.1674C12.6672 21.1384 12.3376 21.0127 12.0591 20.8043L1.07103 12.5944C0.774817 12.3733 0.533906 12.0842 0.367841 11.7506C0.201777 11.4169 0.115235 11.048 0.115235 10.6738C0.115235 10.2997 0.201777 9.93079 0.367841 9.5971C0.533906 9.2634 0.774818 8.9743 1.07103 8.75324L12.0591 0.543396C12.3376 0.334971 12.6672 0.209284 13.0115 0.180295C13.3558 0.151303 13.7013 0.220143 14.0095 0.379168C14.3177 0.538193 14.5767 0.781178 14.7575 1.08113C14.9384 1.38109 15.0342 1.72627 15.0342 2.07834L15.0342 8.09623L25.1402 0.543398C25.4187 0.334972 25.7483 0.209286 26.0926 0.180296C26.4369 0.151304 26.7824 0.220144 27.0906 0.379169C27.3988 0.538195 27.6578 0.781179 27.8386 1.08113C28.0195 1.38109 28.1153 1.72627 28.1152 2.07834L28.1152 19.2693C28.1153 19.6214 28.0195 19.9666 27.8386 20.2665C27.6577 20.5665 27.3988 20.8095 27.0906 20.9685C26.7824 21.1275 26.4369 21.1964 26.0926 21.1674C25.7483 21.1384 25.4187 21.0127 25.1402 20.8043L15.0342 13.2514L15.0342 19.2693Z" fill="#FEFFF9"/>
</svg>