<svg class='middle' width="54" height="54" viewBox="0 0 54 54" fill="none" xmlns="http://www.w3.org/2000/svg">
    <circle cx="26.6152" cy="26.6738" r="26.5" fill="#FEFFF9"/>
    <path fill-rule="evenodd" clip-rule="evenodd" d="M20.7343 15.1738C19.7745 15.1738 18.8539 15.5351 18.1752 16.178C17.4965 16.821 17.1152 17.6931 17.1152 18.6024V35.7453C17.1152 36.6546 17.4965 37.5266 18.1752 38.1696C18.8539 38.8126 19.7745 39.1738 20.7343 39.1738C21.6941 39.1738 22.6146 38.8126 23.2933 38.1696C23.972 37.5266 24.3533 36.6546 24.3533 35.7453V18.6024C24.3533 17.6931 23.972 16.821 23.2933 16.178C22.6146 15.5351 21.6941 15.1738 20.7343 15.1738ZM32.4962 15.1738C31.5364 15.1738 30.6158 15.5351 29.9371 16.178C29.2584 16.821 28.8771 17.6931 28.8771 18.6024V35.7453C28.8771 36.6546 29.2584 37.5266 29.9371 38.1696C30.6158 38.8126 31.5364 39.1738 32.4962 39.1738C33.456 39.1738 34.3765 38.8126 35.0552 38.1696C35.7339 37.5266 36.1152 36.6546 36.1152 35.7453V18.6024C36.1152 17.6931 35.7339 16.821 35.0552 16.178C34.3765 15.5351 33.456 15.1738 32.4962 15.1738Z" fill="#E9706E"/>
</svg>   