<svg class='vector2' width="29" height="22" viewBox="0 0 29 22" fill="none" xmlns="http://www.w3.org/2000/svg">
    <path d="M13.1963 2.07834C13.1963 1.72627 13.292 1.38109 13.4729 1.08114C13.6538 0.781183 13.9127 0.538198 14.221 0.379172C14.5292 0.220146 14.8746 0.151305 15.2189 0.180297C15.5632 0.209288 15.8929 0.334976 16.1713 0.543399L27.1594 8.75325C27.4557 8.97431 27.6966 9.26341 27.8626 9.5971C28.0287 9.93079 28.1152 10.2997 28.1152 10.6738C28.1152 11.048 28.0287 11.4169 27.8626 11.7506C27.6966 12.0842 27.4557 12.3734 27.1594 12.5944L16.1713 20.8043C15.8929 21.0127 15.5632 21.1384 15.2189 21.1674C14.8746 21.1964 14.5292 21.1275 14.221 20.9685C13.9127 20.8095 13.6538 20.5665 13.4729 20.2665C13.292 19.9666 13.1963 19.6214 13.1963 19.2693V13.2514L3.09025 20.8043C2.81182 21.0127 2.48214 21.1384 2.13784 21.1674C1.79354 21.1964 1.4481 21.1275 1.13987 20.9685C0.831651 20.8095 0.572719 20.5665 0.39184 20.2665C0.21096 19.9666 0.115213 19.6214 0.115234 19.2693V2.07834C0.115213 1.72627 0.21096 1.38109 0.39184 1.08114C0.572719 0.781183 0.831651 0.538198 1.13987 0.379172C1.4481 0.220146 1.79354 0.151305 2.13784 0.180297C2.48214 0.209288 2.81182 0.334976 3.09025 0.543399L13.1963 8.09623V2.07834Z" fill="#FEFFF9"/>
</svg>