<svg width="114" height="36" viewBox="0 0 114 36" fill="none" xmlns="http://www.w3.org/2000/svg">
<path d="M35.4563 11.96H32.7963V13.32H40.6363V11.96H38.0563V11.56H41.1563V10.18H38.0563V9.4H35.4563V10.18H32.2363V11.56H35.4563V11.96ZM43.0563 18.46C43.8963 18.28 44.6763 18.06 45.3763 17.78C46.0963 18.06 46.8563 18.3 47.7163 18.46H43.0563ZM44.5963 20.88H37.7563V20.42H44.5963V20.88ZM37.7563 25.06V24.62H44.5963V25.06H37.7563ZM44.5963 22.98H37.7563V22.52H44.5963V22.98ZM46.2163 14.92C45.9363 15.18 45.5963 15.42 45.2163 15.62C44.8363 15.42 44.4963 15.18 44.2363 14.92H46.2163ZM45.8563 11.62C45.8963 12.6 46.1163 13.22 46.9563 13.44H43.4763C44.0963 12.9 44.3963 12.28 44.5163 11.62H45.8563ZM35.7963 15.04V15.82H35.0963C35.1163 15.56 35.1163 15.32 35.1163 15.08V15.04H35.7963ZM38.5363 15.82H37.7763V15.04H38.5363V15.82ZM48.5363 13.54H48.9963C49.3963 13.54 49.9163 13.52 50.1963 13.4C50.1163 12.84 50.0963 12.28 50.0563 11.7C49.7963 11.8 49.2163 11.84 48.9363 11.84H48.4763C48.1763 11.84 48.1563 11.64 48.1563 11.3V9.78H42.4163V10.78C42.4163 11.46 42.2163 12.02 40.6563 12.54C40.8963 12.7 41.2563 13.08 41.5763 13.44H41.5563V14.92H43.1763L42.0363 15.22C42.3363 15.66 42.6963 16.04 43.0963 16.4C42.3763 16.58 41.5963 16.7 40.7563 16.78C41.1163 17.18 41.5163 17.9 41.7563 18.46H34.2363C34.5163 18.06 34.7163 17.6 34.8563 17.14H40.7363V13.72H32.9563V15.02C32.9563 15.88 32.8363 16.94 31.7963 17.82C32.0963 17.94 32.5563 18.2 32.9963 18.46H32.7563V20.42H34.9363V25.06H32.1963V27.02H44.5963V28.4H47.4763V27.02H50.1163V25.06H47.4763V20.42H49.5963V18.46H49.0763C49.3763 17.9 49.8963 17.16 50.3163 16.76C49.3763 16.7 48.4963 16.6 47.6963 16.44C48.4763 15.76 49.0963 14.94 49.5363 13.88L48.5363 13.54ZM56.5163 13.88H60.9163V14.36H56.5163V13.88ZM56.5163 11.8H60.9163V12.28H56.5163V11.8ZM64.4763 16.76H60.4363C60.3363 16.52 60.2163 16.28 60.0963 16.06H63.7963V13.92C64.4763 14.46 65.2163 15.22 65.6363 15.78C67.5763 14.56 69.5363 12.82 70.9363 10.82L68.1763 9.72C67.2363 11.24 65.4163 12.74 63.7963 13.64V10.1H53.7763V16.06H58.7163L57.1763 16.36C57.2363 16.48 57.2963 16.62 57.3563 16.76H52.9363V18.94H64.4763V16.76ZM68.5963 15.18C67.5363 16.84 65.4163 18.5 63.6763 19.46C64.3963 20 65.2363 20.86 65.6763 21.5C67.6763 20.2 69.7763 18.36 71.2563 16.28L68.5963 15.18ZM60.0963 24.42V23.74H61.6763L60.0963 24.42ZM55.1163 23.74H57.2563V25.9C57.2563 26.08 57.1963 26.14 56.9963 26.14C56.8563 26.14 56.4763 26.14 56.0963 26.14C56.4563 25.54 56.7763 24.9 57.0363 24.32L55.1163 23.74ZM56.8563 21.24H60.6363V21.92H56.8563V21.24ZM63.4563 23.74V19.4H54.1763V23.74H54.5963C54.1963 24.66 53.5563 25.68 52.9363 26.38C53.4763 26.74 54.4363 27.48 54.8763 27.9C55.1963 27.52 55.5563 27 55.8963 26.46C56.1563 27.06 56.4163 27.82 56.5163 28.42C57.5763 28.42 58.4563 28.4 59.1763 28.06C59.9363 27.7 60.0963 27.12 60.0963 25.98V24.56C60.6563 25.62 61.2763 27.02 61.5363 27.88L63.6963 26.88C63.4163 26.04 62.7363 24.76 62.1563 23.74H63.4563ZM68.8963 20.68C67.7563 22.94 65.5563 24.84 63.3363 25.94C64.0563 26.54 64.8963 27.5 65.3363 28.22C67.8763 26.68 70.1163 24.48 71.5963 21.66L68.8963 20.68ZM77.3763 12.22C76.5763 14.6 75.2163 17.26 73.8963 18.88C74.5963 19.18 75.8563 19.84 76.4363 20.26C77.6763 18.46 79.1563 15.58 80.1363 12.96L77.3763 12.22ZM86.4963 13.34C87.7963 15.48 89.3763 18.4 90.0763 20.22L92.5763 18.74C91.7763 16.94 90.2163 14.22 88.8563 12.1L86.4963 13.34ZM87.6163 19.76C85.1563 23.94 80.1963 25.14 73.5363 25.58C74.0763 26.32 74.6363 27.5 74.8763 28.36C82.0963 27.6 87.3763 25.94 90.2963 20.92L87.6163 19.76ZM81.4963 9.44V22.04H84.3963V9.44H81.4963ZM107.056 16.8C106.416 18.68 105.576 20.16 104.476 21.32C103.436 20.86 102.376 20.4 101.336 19.96C101.736 19 102.176 17.92 102.596 16.8H107.056ZM113.316 25.62C111.816 24.82 109.776 23.8 107.516 22.72C108.756 21.18 109.696 19.24 110.396 16.8H113.236V13.66H111.156C111.236 13.24 111.296 12.8 111.376 12.36L108.256 11.64C108.156 12.34 108.036 13.02 107.896 13.66H103.696C104.116 12.36 104.496 11.04 104.776 9.76L101.636 9.32C101.296 10.72 100.856 12.18 100.336 13.66H95.2163V16.8H99.1163C98.4163 18.48 97.6563 20.06 96.9363 21.34C98.5163 21.98 100.116 22.68 101.656 23.42C99.8363 24.38 97.5363 25 94.6763 25.44C95.3563 26.2 96.0763 27.42 96.3963 28.28C100.016 27.58 102.816 26.6 104.996 25.08C107.376 26.3 109.496 27.5 111.056 28.44L113.316 25.62Z" fill="#E9706E"/>
<path d="M11.9027 29.9021C18.0945 29.9021 23.114 24.8826 23.114 18.6908C23.114 12.499 18.0945 7.47949 11.9027 7.47949C5.71088 7.47949 0.691406 12.499 0.691406 18.6908C0.691406 24.8826 5.71088 29.9021 11.9027 29.9021Z" fill="#E9706E"/>
<path d="M8.97269 13.8853C6.71027 15.1415 8.22233 16.1022 8.22233 18.8023C8.22233 21.5024 6.71027 22.4574 8.97269 23.7194C11.3999 25.0666 11.3999 23.3272 13.8215 21.9743C16.2488 20.627 17.92 21.69 17.92 18.8023C17.92 15.9146 16.0044 17.5574 13.9125 15.6929C11.7865 13.8 11.3999 12.5381 8.97269 13.8853Z" fill="#FBEEEA"/>
</svg>
