<svg width="199" height="281" viewBox="0 0 199 281" fill="none" xmlns="http://www.w3.org/2000/svg">
<rect x="0.307129" y="0.742188" width="198" height="280" rx="30" fill="#E08F8A"/>
<rect x="19.3071" y="16.7422" width="160" height="248" rx="30" stroke="#F9EEEB" stroke-width="5"/>
<path d="M67.1317 140.742V136.806H68.3317V126.006H67.1317V122.07H77.2597V126.006H75.0517V136.806H77.2117V134.598H81.9877V140.742H67.1317ZM91.1153 141.078C88.8433 141.078 87.0673 140.486 85.7873 139.302C84.5073 138.102 83.8673 136.358 83.8673 134.07C83.8673 131.782 84.5073 130.046 85.7873 128.862C87.0673 127.662 88.8433 127.062 91.1153 127.062C93.4193 127.062 95.2033 127.67 96.4674 128.886C97.7313 130.086 98.3633 131.814 98.3633 134.07C98.3633 136.358 97.7234 138.102 96.4434 139.302C95.1634 140.486 93.3873 141.078 91.1153 141.078ZM91.1153 136.806C91.5793 136.806 91.9233 136.686 92.1473 136.446C92.3873 136.19 92.5073 135.798 92.5073 135.27V132.87C92.5073 132.342 92.3873 131.958 92.1473 131.718C91.9233 131.462 91.5793 131.334 91.1153 131.334C90.6513 131.334 90.2993 131.462 90.0593 131.718C89.8353 131.958 89.7233 132.342 89.7233 132.87V135.27C89.7233 135.798 89.8353 136.19 90.0593 136.446C90.2993 136.686 90.6513 136.806 91.1153 136.806ZM107.359 146.406C106.207 146.406 105.103 146.326 104.047 146.166C103.007 146.006 102.199 145.822 101.623 145.614V141.678C103.319 141.982 104.839 142.134 106.183 142.134C107.095 142.134 107.751 141.99 108.151 141.702C108.567 141.43 108.775 140.91 108.775 140.142V139.11C108.375 139.622 107.855 140.078 107.215 140.478C106.591 140.878 105.871 141.078 105.055 141.078C103.423 141.078 102.191 140.47 101.359 139.254C100.543 138.038 100.135 136.31 100.135 134.07C100.135 131.83 100.543 130.102 101.359 128.886C102.191 127.67 103.423 127.062 105.055 127.062C105.871 127.062 106.591 127.262 107.215 127.662C107.855 128.062 108.375 128.518 108.775 129.03V127.398H115.351V131.334H114.295V139.782C114.295 142.102 113.719 143.782 112.567 144.822C111.415 145.878 109.679 146.406 107.359 146.406ZM107.383 136.806C107.847 136.806 108.191 136.686 108.415 136.446C108.655 136.19 108.775 135.798 108.775 135.27V132.87C108.775 132.342 108.655 131.958 108.415 131.718C108.191 131.462 107.847 131.334 107.383 131.334C106.919 131.334 106.567 131.462 106.327 131.718C106.103 131.958 105.991 132.342 105.991 132.87V135.27C105.991 135.798 106.103 136.19 106.327 136.446C106.567 136.686 106.919 136.806 107.383 136.806ZM124.383 141.078C122.111 141.078 120.335 140.486 119.055 139.302C117.775 138.102 117.135 136.358 117.135 134.07C117.135 131.782 117.775 130.046 119.055 128.862C120.335 127.662 122.111 127.062 124.383 127.062C126.687 127.062 128.471 127.67 129.735 128.886C130.999 130.086 131.631 131.814 131.631 134.07C131.631 136.358 130.991 138.102 129.711 139.302C128.431 140.486 126.655 141.078 124.383 141.078ZM124.383 136.806C124.847 136.806 125.191 136.686 125.415 136.446C125.655 136.19 125.775 135.798 125.775 135.27V132.87C125.775 132.342 125.655 131.958 125.415 131.718C125.191 131.462 124.847 131.334 124.383 131.334C123.919 131.334 123.567 131.462 123.327 131.718C123.103 131.958 122.991 132.342 122.991 132.87V135.27C122.991 135.798 123.103 136.19 123.327 136.446C123.567 136.686 123.919 136.806 124.383 136.806Z" fill="#F9EEEB"/>
<path d="M73.3907 108.42C72.085 109.613 70.4811 110.095 68.8064 109.499C67.5574 109.059 66.4787 108.179 65.5136 107.186C65.5136 108.378 65.2723 109.556 65.1304 110.776C65.0878 111.174 64.733 111.372 64.4066 111.259C63.7821 111.06 63.1718 110.805 62.5899 110.521C62.5899 110.549 62.5899 110.592 62.6041 110.62C62.8879 114.296 63.115 117.972 63.2286 121.648C63.3705 126.261 63.3563 130.902 63.0298 135.515C62.7034 140 62.1073 144.541 60.8158 148.856C59.7513 152.39 58.1333 155.981 55.4083 158.408C53.2084 160.366 50.5117 161.175 47.7725 161.104C49.8446 162.439 52.1439 163.347 54.4573 164.042C57.1824 164.866 59.9926 165.391 62.817 165.717C68.0967 166.342 73.5468 166.413 78.8408 165.547C80.0614 165.348 81.2961 165.192 82.5025 164.851C83.2264 164.653 83.9786 164.383 84.5605 163.858C85.6534 162.879 85.5114 161.076 85.3695 159.657C85.2417 158.351 85.0005 157.074 84.8302 155.768C84.5747 153.752 84.376 151.737 84.078 149.722C83.4819 145.734 82.7296 141.788 81.8638 137.871C81.438 135.898 80.9129 133.953 80.5155 131.966C80.1323 129.979 79.8626 127.95 79.5646 125.934C78.9969 121.989 78.4717 118.029 77.7905 114.097C76.0873 112.508 74.8526 110.28 73.3907 108.42Z" fill="#B09D9C"/>
<path d="M106.715 115.218C103.891 114.14 100.925 113.643 97.9016 113.771C94.8076 113.898 91.7419 114.565 88.7188 115.19C85.5822 115.843 82.4172 116.198 79.2521 116.723C76.5129 117.163 73.7027 117.801 71.3609 119.306C70.8499 120.91 70.3674 122.513 69.9132 124.146C67.9404 131.185 66.5211 138.523 66.9469 145.861C67.2875 151.737 68.7636 158.464 73.8588 162.097C78.0458 165.064 83.4532 165.362 88.3924 164.737C89.7691 164.567 91.1316 164.297 92.4941 163.999C94.4244 163.559 96.3972 163.304 98.3558 163.063C102.33 162.552 106.332 162.225 110.306 161.686C113.116 161.303 115.955 160.976 118.723 160.295C121.164 159.699 123.889 158.876 125.635 156.974C127.182 155.285 127.863 153.085 128.218 150.871C128.629 148.274 128.587 145.591 128.331 142.994C127.792 137.572 126.202 132.463 123.037 127.978C119.035 122.329 113.187 117.659 106.715 115.218Z" fill="#F5E7E1"/>
<path d="M92.8639 154.477C92.3387 154.15 91.4304 154.079 90.7066 154.079C89.6421 154.065 88.5776 154.193 87.5415 154.349C86.0087 154.59 84.1778 154.945 82.8437 155.484C82.6024 156.095 82.574 156.762 83.1701 157.273C83.7804 157.798 84.8023 158.011 85.6965 158.096C87.6551 158.295 89.9402 158.039 91.6149 157.273C92.4097 156.918 92.8639 156.492 93.1194 155.839C93.2329 155.555 93.318 155.257 93.2329 154.959C93.2045 154.76 93.0768 154.604 92.8639 154.477Z" fill="#DA7772"/>
<path d="M118.382 129.001C118.07 128.234 117.786 127.439 117.417 126.701C117.29 126.432 117.148 126.162 116.977 125.921C116.807 125.651 116.921 125.793 116.693 125.58C116.481 125.381 116.651 125.495 116.353 125.339C116.168 125.239 115.97 125.154 115.771 125.069C115.402 124.927 114.564 124.658 114.025 124.459C113.897 124.416 113.755 124.36 113.628 124.303C114.096 127.184 114.224 130.122 114.11 133.046C113.727 143.123 110.108 158.862 98.4697 159.203C99.8322 160.48 101.479 161.389 103.253 161.942C111.91 164.625 125.209 159.629 124.031 148.53C123.989 148.118 124.145 147.82 124.4 147.65C123.478 144.613 122.654 141.533 121.746 138.481C120.795 135.245 119.631 132.123 118.382 129.001Z" fill="#B09D9C" stroke="#B09D9C" stroke-miterlimit="10"/>
<path d="M150.019 149.297C147.819 149.226 146.158 147.778 145.065 146.075C143.603 143.818 142.865 141.15 142.283 138.581C140.907 132.492 140.566 126.247 139.942 120.059C139.743 118.072 139.615 115.972 138.976 114.056C137.699 110.195 135.939 106.42 133.725 102.957C131.554 99.5788 128.857 96.4848 125.55 94.0436C122.172 91.5457 118.226 89.8141 114.068 88.8774C109.569 87.8555 104.842 87.7703 100.244 88.1677C95.8725 88.551 90.9618 89.5303 87.8252 92.6811C87.6265 92.8798 87.371 92.8656 87.1865 92.752C83.2266 94.881 78.4294 95.3919 74.4128 97.4357C72.3549 98.486 70.2543 99.4227 68.3383 100.714C66.3938 102.048 64.6623 103.681 63.2147 105.483C61.2135 107.981 59.9077 110.99 59.3116 114.07C58.7439 116.979 58.8433 120.187 60.2625 122.869C61.7244 125.637 64.421 127.269 67.5009 127.979C67.5435 126.716 67.657 125.495 67.1745 124.275C66.9758 123.764 67.6996 123.494 68.0544 123.792C69.2183 124.757 70.524 125.736 72.0426 126.134C73.6606 126.56 74.9806 125.935 76.0166 124.743C76.2012 124.53 76.5702 124.573 76.7689 124.743C78.1456 125.921 79.3094 127.298 80.6719 128.49C81.0267 128.802 81.41 129.114 81.7932 129.384C81.9777 129.398 82.148 129.483 82.2331 129.682C82.9996 130.165 83.8369 130.534 84.7595 130.69C86.4342 130.974 87.9103 130.491 89.1877 129.455C91.7708 127.369 93.2469 124.317 95.7732 122.188C95.9719 122.018 96.3409 121.961 96.5254 122.188C97.0506 122.813 97.5899 123.409 98.1434 124.005C100.201 126.148 102.657 128.107 105.396 129.412C106.177 129.781 107 130.065 107.795 130.406C108.277 130.605 108.646 130.874 108.902 131.314C109.342 132.052 109.583 132.918 109.867 133.699C110.449 135.274 110.931 136.864 111.343 138.482C111.769 140.142 112.152 141.817 112.649 143.463C113.145 145.11 113.798 146.671 114.593 148.204C115.842 150.602 117.02 153.029 118.468 155.329C119.83 157.5 121.505 159.899 124.088 160.864C127.125 161.999 130.546 161.375 133.626 160.708C136.337 160.126 139.033 159.544 141.645 158.621C143.916 157.827 146.172 156.762 147.918 155.13C149.635 153.526 150.6 151.468 150.842 149.226C150.586 149.297 150.302 149.311 150.019 149.297Z" fill="#B09D9C" stroke="#B09D9C" stroke-miterlimit="10"/>
<path d="M67.3159 124.003C68.0965 126.046 69.9558 126.472 71.5171 126.501C72.7802 126.515 74.0434 126.43 75.2072 125.834C76.371 125.237 77.3929 124.074 77.8329 122.413C77.0523 125.237 75.3208 127.395 73.2486 128.062C71.7299 128.559 69.7571 127.991 69.0049 125.876" fill="#B09D9C"/>
<path d="M65.2578 124.571C65.8539 126.047 66.7906 127.296 68.2809 127.949C69.5866 128.531 70.9918 128.687 72.411 128.616C74.2561 128.531 75.9451 128.048 77.3927 126.898C78.6275 125.919 79.4507 124.486 79.8623 122.981C80.1604 121.902 79.4933 120.611 78.372 120.355C77.2366 120.1 76.0728 120.696 75.7463 121.846C75.6754 122.115 75.5902 122.385 75.4909 122.655C75.4483 122.782 75.3915 123.009 75.3064 123.123C75.4483 122.91 75.4057 122.896 75.2922 123.137C75.0509 123.634 74.767 124.102 74.469 124.557C74.3129 124.798 74.4264 124.542 74.5258 124.486C74.4406 124.542 74.3129 124.741 74.2419 124.826C74.0858 125.011 73.9155 125.181 73.7452 125.337C73.66 125.422 73.5607 125.479 73.4755 125.564C73.291 125.749 73.8445 125.323 73.5323 125.522C73.3194 125.649 73.1207 125.791 72.9078 125.905C72.851 125.933 72.6523 126.004 72.6097 126.047C72.6807 125.947 73.0639 125.891 72.6949 126.004C72.5955 126.033 72.5104 126.061 72.411 126.089C72.3401 126.104 71.9711 126.16 72.3543 126.118C72.7375 126.075 72.3826 126.118 72.2833 126.118C72.1697 126.118 72.0562 126.118 71.9284 126.118C71.5594 126.118 72.3259 126.231 72.0846 126.146C71.9994 126.118 71.8859 126.104 71.8007 126.075C71.7014 126.047 71.6162 126.004 71.5169 125.976C71.2898 125.905 71.9427 126.217 71.6446 126.018C71.5737 125.976 71.4601 125.891 71.3749 125.862C71.1621 125.777 71.7014 126.174 71.4601 125.919C71.3749 125.82 71.2756 125.735 71.1904 125.635C70.935 125.366 71.3466 125.905 71.233 125.678C71.1762 125.578 71.1053 125.465 71.0485 125.366C70.8356 124.996 71.1904 125.763 71.0201 125.309C70.6369 124.273 69.5582 123.449 68.3944 123.818C67.3725 124.145 66.4926 125.323 66.9042 126.444C67.5287 128.133 68.6215 129.41 70.3247 130.049C71.6304 130.546 73.1065 130.404 74.3696 129.879C77.2224 128.672 79.0107 125.876 79.8339 122.981C78.4714 122.598 77.0947 122.229 75.7322 121.846C75.6896 121.988 75.647 122.13 75.6045 122.257C75.5761 122.342 75.5477 122.413 75.5193 122.499C75.5477 122.428 75.5761 122.371 75.6045 122.3C75.6186 122.47 75.3064 122.882 75.2212 123.009C75.1786 123.066 74.9232 123.421 75.1219 123.166C75.3206 122.91 75.0509 123.251 74.9941 123.293C74.909 123.378 74.5967 123.79 74.469 123.79C74.5683 123.79 74.838 123.549 74.4974 123.748C74.3981 123.804 74.2987 123.875 74.1993 123.932C74.1426 123.96 73.7452 124.159 74.0006 124.046C74.2561 123.932 73.7452 124.131 73.7452 124.131C73.5465 124.187 73.0923 124.386 72.8794 124.329C72.9504 124.315 73.0213 124.315 73.0923 124.301C73.0071 124.315 72.9078 124.315 72.8226 124.329C72.6665 124.344 72.5246 124.358 72.3685 124.358C71.8717 124.386 71.3749 124.386 70.8782 124.344C70.793 124.329 70.7221 124.315 70.6369 124.315C71.2188 124.329 70.9066 124.344 70.7221 124.315C70.5376 124.273 70.3673 124.216 70.1827 124.173C69.8279 124.074 70.1828 124.117 70.2821 124.23C70.2253 124.173 70.0692 124.131 69.9982 124.088C69.8989 124.031 69.8137 123.975 69.7286 123.918C69.3737 123.719 69.9414 124.145 69.7995 123.975C69.7285 123.889 69.6434 123.818 69.5583 123.748C69.2744 123.506 69.7144 124.017 69.5866 123.804C69.5157 123.705 69.4447 123.606 69.3879 123.492C69.3312 123.378 69.1467 122.953 69.3312 123.435C68.9196 122.399 67.8977 121.562 66.7055 121.945C65.7545 122.271 64.8178 123.464 65.2578 124.571Z" fill="#B09D9C"/>
<path d="M94.5947 121.945C98.5262 124.159 102.628 126.104 106.829 127.75C104.941 127.339 103.068 126.913 101.18 126.501C103.167 127.963 105.736 128.63 108.177 128.318" fill="#B09D9C"/>
<path d="M93.5158 123.776C97.6175 126.075 101.875 128.062 106.261 129.794C106.644 128.431 107.013 127.054 107.396 125.692C105.509 125.28 103.635 124.855 101.748 124.443C100.697 124.216 99.6613 124.67 99.2355 125.678C98.7955 126.714 99.2355 127.707 100.101 128.332C102.4 129.978 105.367 130.759 108.177 130.432C109.284 130.305 110.363 129.538 110.306 128.303C110.263 127.253 109.355 126.033 108.177 126.174C105.878 126.43 104.132 126.004 102.244 124.642C101.691 125.933 101.152 127.239 100.598 128.531C102.486 128.942 104.359 129.368 106.247 129.779C107.325 130.021 108.603 129.453 108.873 128.289C109.156 127.069 108.503 126.104 107.382 125.664C103.437 124.117 99.4626 122.215 95.6589 120.086C94.6937 119.546 93.2887 119.816 92.7493 120.852C92.2242 121.874 92.4797 123.194 93.5158 123.776Z" fill="#B09D9C"/>
<path d="M127.324 129.836C127.026 129.07 126.742 128.275 126.387 127.537C126.259 127.267 126.117 126.997 125.961 126.756C125.791 126.487 125.904 126.628 125.691 126.416C125.478 126.217 125.649 126.33 125.351 126.174C125.166 126.075 124.982 125.99 124.783 125.905C124.428 125.763 123.605 125.479 123.08 125.28C122.952 125.238 122.824 125.181 122.682 125.124C123.151 128.005 123.264 130.943 123.165 133.867C122.81 143.944 119.29 159.684 107.95 159.996C109.27 161.273 110.888 162.196 112.62 162.749C121.05 165.446 134.008 160.464 132.859 149.366C132.816 148.954 132.972 148.656 133.214 148.486C132.305 145.448 131.496 142.368 130.616 139.317C129.68 136.095 128.544 132.959 127.324 129.836Z" fill="#B09D9C" stroke="#B09D9C" stroke-miterlimit="10"/>
<path d="M103.579 160.578C117.545 164.453 133.029 162.579 145.661 155.469Z" fill="#B09D9C"/>
<path d="M103.012 162.634C117.644 166.608 133.484 164.664 146.726 157.312C149.124 155.977 146.981 152.301 144.583 153.636C132.32 160.448 117.673 162.208 104.147 158.532C101.493 157.808 100.372 161.91 103.012 162.634Z" fill="#B09D9C"/>
<path d="M94.8643 123.165C95.0913 124.783 96.5107 125.947 97.9583 126.699C100.939 128.246 104.473 128.686 107.737 127.92" fill="#B09D9C"/>
<path d="M92.8065 123.733C93.3458 126.799 96.454 128.558 99.1365 129.509C102.06 130.545 105.282 130.659 108.305 129.978C109.398 129.736 110.136 128.417 109.795 127.352C109.426 126.217 108.348 125.606 107.17 125.862C106.872 125.933 106.588 125.99 106.29 126.032C106.19 126.046 105.963 126.075 106.19 126.046C106.048 126.061 105.892 126.075 105.75 126.089C105.154 126.146 104.558 126.16 103.962 126.131C102.827 126.089 101.975 125.947 100.684 125.535C100.4 125.45 100.116 125.337 99.8461 125.237C99.5055 125.11 100.073 125.337 99.7326 125.195C99.5907 125.138 99.4629 125.067 99.321 125.01C98.8526 124.783 98.3985 124.513 97.9585 124.215C97.6888 124.031 98.1856 124.414 97.9301 124.201C97.8307 124.116 97.7314 124.031 97.6463 123.946C97.5611 123.861 97.4617 123.775 97.3766 123.676C97.3482 123.648 97.1069 123.35 97.2489 123.534C97.405 123.733 96.9224 122.981 97.0501 123.222C97.1637 123.435 97.0075 123.108 96.9934 123.052C96.9508 122.895 96.9224 122.754 96.894 122.597C96.6953 121.505 95.2902 120.781 94.2683 121.107C93.1045 121.49 92.5936 122.555 92.8065 123.733Z" fill="#B09D9C"/>
<path d="M75.406 138.905C75.3634 138.933 75.3208 138.962 75.2782 138.976C73.0357 140.055 72.0281 142.553 71.9145 145.065C71.8152 147.08 72.1558 149.805 73.5183 151.352C75.1789 153.226 78.2161 152.261 79.3374 150.274C80.6289 148.003 80.1748 145.093 79.38 142.709C78.7697 140.864 77.5775 138.352 75.406 138.905Z" fill="#F1F1F1"/>
<path d="M79.7348 142.752C79.2381 141.376 78.5569 139.814 77.4072 138.863C76.7685 138.338 75.9453 138.267 75.2215 137.898C74.6112 137.572 74.228 137.075 73.8732 136.493C73.5326 135.926 73.2487 135.202 72.752 134.762C72.7378 134.762 72.7236 134.762 72.7094 134.762C72.7094 134.79 72.7094 134.833 72.7236 134.889C73.0216 135.769 73.3765 136.536 73.8306 137.345C73.859 137.387 73.8874 137.444 73.9016 137.487C74.1429 137.842 74.1429 138.353 73.6887 138.651C73.121 139.005 72.5107 139.034 71.872 138.892C71.574 138.821 71.2759 138.722 70.992 138.622C70.9211 138.594 70.7224 138.565 70.5521 138.537C70.623 138.636 70.694 138.736 70.7082 138.75C70.9778 139.034 71.3326 139.346 71.7159 139.431C72.5107 139.616 72.4113 140.623 71.8436 140.921C71.7726 141.574 71.3894 142.128 70.6372 142.341C70.3676 142.412 70.0837 142.44 69.7998 142.44C70.1972 142.639 70.623 142.795 71.0204 143.008C71.5597 143.292 71.503 143.888 71.1624 144.243C71.0772 144.754 70.9637 145.307 71.0772 145.804C71.1198 145.761 71.1765 145.719 71.2191 145.662C71.4604 145.35 71.6023 144.952 71.7584 144.597C71.801 144.484 71.8578 144.385 71.9287 144.299C72.1132 143.533 72.4255 142.823 72.7236 142.099C72.9507 141.546 73.0642 140.907 73.3764 140.396C73.6319 139.956 74.1287 139.488 74.6538 139.403C75.2073 139.318 75.5622 139.701 75.9596 139.999C76.4421 140.368 76.4989 141.035 75.9596 141.39C74.7248 142.199 74.7106 144.214 74.6822 145.52C74.6538 146.868 74.6112 148.302 74.8099 149.65C74.9519 150.601 75.2641 151.992 76.3144 152.318C77.5918 152.716 78.9117 151.665 79.5362 150.644C81.0122 148.217 80.6432 145.293 79.7348 142.752ZM78.2304 150.715C78.0885 150.856 77.9749 151.013 77.7904 151.112C77.4782 151.282 77.1659 151.254 76.8253 151.197C76.655 151.169 76.4989 151.041 76.4137 150.913C76.3144 150.771 76.2434 150.601 76.2434 150.431C76.2576 150.133 76.3428 149.835 76.5699 149.636C76.655 149.551 76.7543 149.48 76.8679 149.423C76.8537 149.437 76.8253 149.437 76.8111 149.451C76.9956 149.366 77.1376 149.253 77.3504 149.224C77.6911 149.182 78.0175 149.309 78.2304 149.579C78.3723 149.749 78.4575 149.92 78.4717 150.147C78.4717 150.346 78.3581 150.573 78.2304 150.715ZM78.0743 148.131C77.6201 148.586 76.9246 148.628 76.4989 148.103C76.215 147.734 76.1015 147.308 76.0589 146.854C75.8034 146.13 75.6047 145.335 75.6473 144.569C75.6757 143.888 75.917 142.852 76.6834 142.625C77.3788 142.412 77.8188 143.008 78.0175 143.576C78.2588 144.271 78.4575 145.052 78.5994 145.761C78.7556 146.584 78.713 147.493 78.0743 148.131Z" fill="#5B5B5B"/>
<path d="M98.3128 136.281C98.1567 136.309 98.0148 136.295 97.8728 136.252C95.9284 137.232 94.9917 140.326 94.793 142.213C94.5233 144.782 95.5168 147.536 97.958 148.813C98.9231 149.324 100.399 149.75 101.435 149.168C102.4 148.629 102.968 147.252 103.337 146.287C104.174 144.087 103.252 141.376 102.386 139.276C101.677 137.558 100.442 135.954 98.3128 136.281Z" fill="#F1F1F1"/>
<path d="M103.238 139.829C102.742 138.453 102.06 136.892 100.911 135.941C100.272 135.415 99.4487 135.345 98.7249 134.976C98.1146 134.649 97.7314 134.152 97.3766 133.57C97.036 133.003 96.7521 132.279 96.2553 131.839C96.2411 131.839 96.2269 131.839 96.2128 131.839C96.2128 131.867 96.2128 131.91 96.227 131.967C96.525 132.847 96.8798 133.613 97.334 134.422C97.3624 134.465 97.3908 134.521 97.405 134.564C97.6462 134.919 97.6462 135.43 97.1921 135.728C96.6244 136.083 96.0141 136.111 95.3754 135.969C95.0773 135.898 94.7793 135.799 94.4954 135.699C94.4245 135.671 94.2258 135.643 94.0554 135.614C94.1264 135.714 94.1974 135.813 94.2115 135.827C94.4812 136.111 94.836 136.423 95.2192 136.508C96.014 136.693 95.9147 137.701 95.347 137.999C95.276 138.651 94.8928 139.205 94.1406 139.418C93.8709 139.489 93.5871 139.517 93.3032 139.517C93.7006 139.716 94.1264 139.872 94.5238 140.085C95.0631 140.369 95.0064 140.965 94.6657 141.32C94.5806 141.831 94.467 142.384 94.5806 142.881C94.6232 142.838 94.6799 142.796 94.7225 142.739C94.9638 142.427 95.1057 142.029 95.2618 141.675C95.3044 141.561 95.3612 141.462 95.4322 141.377C95.6167 140.61 95.9289 139.9 96.227 139.177C96.454 138.623 96.5676 137.984 96.8798 137.473C97.1353 137.033 97.632 136.565 98.1572 136.48C98.7107 136.395 99.0655 136.778 99.4629 137.076C99.9455 137.445 100.002 138.112 99.4629 138.467C98.2282 139.276 98.2139 141.291 98.1855 142.597C98.1572 143.945 98.1146 145.379 98.3133 146.727C98.4552 147.678 98.7675 149.069 99.8178 149.395C101.095 149.793 102.415 148.743 103.04 147.721C104.516 145.308 104.147 142.37 103.238 139.829ZM101.734 147.792C101.592 147.934 101.478 148.09 101.294 148.189C100.982 148.359 100.669 148.331 100.329 148.274C100.158 148.246 100.002 148.118 99.9171 147.99C99.8177 147.848 99.7468 147.678 99.7468 147.508C99.761 147.21 99.8461 146.912 100.073 146.713C100.158 146.628 100.258 146.557 100.371 146.5C100.357 146.514 100.329 146.514 100.314 146.529C100.499 146.443 100.641 146.33 100.854 146.301C101.194 146.259 101.521 146.387 101.734 146.656C101.876 146.827 101.961 146.997 101.975 147.224C101.975 147.423 101.876 147.65 101.734 147.792ZM101.578 145.209C101.124 145.663 100.428 145.705 100.002 145.18C99.7184 144.811 99.6048 144.385 99.5623 143.931C99.3068 143.207 99.1081 142.413 99.1507 141.646C99.1791 140.965 99.4203 139.929 100.187 139.702C100.882 139.489 101.322 140.085 101.521 140.653C101.762 141.348 101.961 142.129 102.103 142.838C102.259 143.662 102.216 144.57 101.578 145.209Z" fill="#5B5B5B"/>
<path d="M123.478 148.103C133.542 148.103 141.701 139.944 141.701 129.879C141.701 119.814 133.542 111.655 123.478 111.655C113.413 111.655 105.254 119.814 105.254 129.879C105.254 139.944 113.413 148.103 123.478 148.103Z" fill="#DA7772"/>
<path d="M120 122.031C116.338 124.075 118.78 125.622 118.78 129.993C118.78 134.365 116.324 135.912 120 137.955C123.932 140.141 123.932 137.317 127.863 135.131C131.795 132.945 134.505 134.663 134.505 129.993C134.505 125.324 131.411 127.978 128.019 124.955C124.556 121.903 123.917 119.859 120 122.031Z" fill="#F9EEEB"/>
</svg>
