<svg width="199" height="281" viewBox="0 0 199 281" fill="none" xmlns="http://www.w3.org/2000/svg">
<rect x="0.307129" y="0.742188" width="198" height="280" rx="30" fill="#B09D9C"/>
<rect x="19.3071" y="16.7422" width="160" height="248" rx="30" stroke="#F9EEEB" stroke-width="5"/>
<path d="M67.1317 140.742V136.806H68.3317V126.006H67.1317V122.07H77.2597V126.006H75.0517V136.806H77.2117V134.598H81.9877V140.742H67.1317ZM91.1153 141.078C88.8433 141.078 87.0673 140.486 85.7873 139.302C84.5073 138.102 83.8673 136.358 83.8673 134.07C83.8673 131.782 84.5073 130.046 85.7873 128.862C87.0673 127.662 88.8433 127.062 91.1153 127.062C93.4193 127.062 95.2033 127.67 96.4674 128.886C97.7313 130.086 98.3633 131.814 98.3633 134.07C98.3633 136.358 97.7234 138.102 96.4434 139.302C95.1634 140.486 93.3873 141.078 91.1153 141.078ZM91.1153 136.806C91.5793 136.806 91.9233 136.686 92.1473 136.446C92.3873 136.19 92.5073 135.798 92.5073 135.27V132.87C92.5073 132.342 92.3873 131.958 92.1473 131.718C91.9233 131.462 91.5793 131.334 91.1153 131.334C90.6513 131.334 90.2993 131.462 90.0593 131.718C89.8353 131.958 89.7233 132.342 89.7233 132.87V135.27C89.7233 135.798 89.8353 136.19 90.0593 136.446C90.2993 136.686 90.6513 136.806 91.1153 136.806ZM107.359 146.406C106.207 146.406 105.103 146.326 104.047 146.166C103.007 146.006 102.199 145.822 101.623 145.614V141.678C103.319 141.982 104.839 142.134 106.183 142.134C107.095 142.134 107.751 141.99 108.151 141.702C108.567 141.43 108.775 140.91 108.775 140.142V139.11C108.375 139.622 107.855 140.078 107.215 140.478C106.591 140.878 105.871 141.078 105.055 141.078C103.423 141.078 102.191 140.47 101.359 139.254C100.543 138.038 100.135 136.31 100.135 134.07C100.135 131.83 100.543 130.102 101.359 128.886C102.191 127.67 103.423 127.062 105.055 127.062C105.871 127.062 106.591 127.262 107.215 127.662C107.855 128.062 108.375 128.518 108.775 129.03V127.398H115.351V131.334H114.295V139.782C114.295 142.102 113.719 143.782 112.567 144.822C111.415 145.878 109.679 146.406 107.359 146.406ZM107.383 136.806C107.847 136.806 108.191 136.686 108.415 136.446C108.655 136.19 108.775 135.798 108.775 135.27V132.87C108.775 132.342 108.655 131.958 108.415 131.718C108.191 131.462 107.847 131.334 107.383 131.334C106.919 131.334 106.567 131.462 106.327 131.718C106.103 131.958 105.991 132.342 105.991 132.87V135.27C105.991 135.798 106.103 136.19 106.327 136.446C106.567 136.686 106.919 136.806 107.383 136.806ZM124.383 141.078C122.111 141.078 120.335 140.486 119.055 139.302C117.775 138.102 117.135 136.358 117.135 134.07C117.135 131.782 117.775 130.046 119.055 128.862C120.335 127.662 122.111 127.062 124.383 127.062C126.687 127.062 128.471 127.67 129.735 128.886C130.999 130.086 131.631 131.814 131.631 134.07C131.631 136.358 130.991 138.102 129.711 139.302C128.431 140.486 126.655 141.078 124.383 141.078ZM124.383 136.806C124.847 136.806 125.191 136.686 125.415 136.446C125.655 136.19 125.775 135.798 125.775 135.27V132.87C125.775 132.342 125.655 131.958 125.415 131.718C125.191 131.462 124.847 131.334 124.383 131.334C123.919 131.334 123.567 131.462 123.327 131.718C123.103 131.958 122.991 132.342 122.991 132.87V135.27C122.991 135.798 123.103 136.19 123.327 136.446C123.567 136.686 123.919 136.806 124.383 136.806Z" fill="#F9EEEB"/>
<path d="M72.1239 107.992C70.7898 109.198 69.1434 109.695 67.4403 109.099C66.1629 108.645 65.0559 107.736 64.0766 106.729C64.0766 107.949 63.8353 109.156 63.6933 110.39C63.6508 110.802 63.2818 110.986 62.9412 110.887C62.3025 110.674 61.678 110.433 61.0819 110.135C61.0819 110.163 61.0818 110.206 61.096 110.234C61.3799 113.981 61.607 117.742 61.7347 121.518C61.8766 126.244 61.8625 130.97 61.5219 135.696C61.1954 140.281 60.5851 144.922 59.2652 149.321C58.1723 152.941 56.5259 156.602 53.7441 159.086C51.4874 161.087 48.734 161.911 45.938 161.84C48.0527 163.202 50.4088 164.125 52.779 164.849C55.5608 165.686 58.4278 166.225 61.3089 166.566C66.7164 167.205 72.28 167.275 77.6875 166.396C78.9365 166.197 80.1997 166.041 81.4203 165.686C82.1583 165.473 82.9248 165.203 83.5209 164.664C84.6421 163.656 84.4859 161.811 84.344 160.378C84.2163 159.044 83.9609 157.724 83.7906 156.404C83.5209 154.346 83.3221 152.274 83.0241 150.23C82.4138 146.156 81.6332 142.126 80.7675 138.123C80.3275 136.108 79.7881 134.121 79.3907 132.091C78.9933 130.062 78.7094 127.99 78.4114 125.932C77.8295 121.901 77.2902 117.842 76.5947 113.825C74.8774 112.179 73.6 109.894 72.1239 107.992Z" fill="#E08F8A" stroke="#E08F8A" stroke-miterlimit="10"/>
<path d="M106.173 114.933C103.277 113.84 100.254 113.329 97.1746 113.457C94.0095 113.584 90.887 114.266 87.793 114.904C84.5854 115.571 81.3495 115.94 78.1135 116.466C75.3175 116.92 72.4505 117.558 70.0377 119.105C69.5126 120.738 69.0158 122.384 68.5474 124.045C66.532 131.24 65.0844 138.734 65.5102 146.228C65.8508 152.232 67.3694 159.115 72.5782 162.82C76.8503 165.857 82.3855 166.169 87.4382 165.516C88.8432 165.332 90.2484 165.076 91.6251 164.75C93.5979 164.296 95.6133 164.04 97.6145 163.785C101.674 163.26 105.761 162.933 109.82 162.38C112.702 161.996 115.597 161.656 118.421 160.96C120.905 160.35 123.701 159.513 125.475 157.568C127.051 155.851 127.76 153.594 128.115 151.338C128.541 148.684 128.484 145.944 128.229 143.29C127.675 137.755 126.057 132.518 122.821 127.948C118.762 122.214 112.787 117.445 106.173 114.933Z" fill="#F5E7E1"/>
<path d="M92.0231 155.069C91.4837 154.728 90.5612 154.672 89.8232 154.657C88.7445 154.643 87.6516 154.771 86.6014 154.927C85.0402 155.168 83.1667 155.537 81.8042 156.091C81.5629 156.715 81.5345 157.397 82.1448 157.922C82.7693 158.461 83.8054 158.674 84.7279 158.759C86.7291 158.958 89.0709 158.702 90.7741 157.922C91.5831 157.553 92.0373 157.127 92.307 156.46C92.4205 156.176 92.5056 155.864 92.4204 155.566C92.3637 155.353 92.236 155.197 92.0231 155.069Z" fill="#DA7772"/>
<path d="M118.095 129.025C117.783 128.23 117.485 127.436 117.116 126.669C116.988 126.385 116.832 126.116 116.676 125.86C116.506 125.591 116.619 125.733 116.392 125.52C116.179 125.307 116.35 125.434 116.037 125.264C115.839 125.165 115.64 125.08 115.441 124.994C115.058 124.838 114.206 124.569 113.653 124.37C113.511 124.313 113.383 124.271 113.241 124.214C113.724 127.166 113.852 130.161 113.738 133.141C113.355 143.431 109.651 159.526 97.7568 159.881C99.1477 161.186 100.837 162.123 102.639 162.677C111.481 165.416 125.078 160.306 123.872 148.98C123.829 148.555 124 148.257 124.255 148.086C123.304 144.978 122.467 141.827 121.544 138.719C120.565 135.412 119.373 132.219 118.095 129.025Z" fill="#E08F8A" stroke="#E08F8A" stroke-miterlimit="10"/>
<path d="M150.427 149.776C148.17 149.705 146.481 148.229 145.36 146.483C143.87 144.17 143.117 141.459 142.521 138.833C141.116 132.603 140.775 126.216 140.137 119.9C139.938 117.87 139.796 115.727 139.143 113.769C137.838 109.823 136.049 105.963 133.778 102.429C131.564 98.9654 128.797 95.8146 125.433 93.3167C121.984 90.7619 117.953 89.002 113.695 88.0369C109.097 87.0008 104.271 86.9015 99.5735 87.3131C95.1027 87.6963 90.0784 88.704 86.8708 91.9258C86.6721 92.1387 86.4024 92.1103 86.2179 91.9967C82.1588 94.1682 77.2764 94.6934 73.1604 96.7797C71.0599 97.8442 68.9026 98.8093 66.9581 100.129C64.9711 101.492 63.197 103.152 61.7209 105.012C59.6772 107.566 58.3288 110.632 57.7185 113.783C57.1366 116.749 57.236 120.028 58.6978 122.781C60.2023 125.606 62.9558 127.28 66.1066 128.004C66.1492 126.727 66.2627 125.464 65.766 124.215C65.5531 123.69 66.3053 123.406 66.6743 123.718C67.8665 124.697 69.2007 125.705 70.7477 126.117C72.3941 126.542 73.7566 125.918 74.8069 124.697C75.0056 124.47 75.3745 124.527 75.5732 124.697C76.9783 125.904 78.1705 127.309 79.5614 128.529C79.9305 128.856 80.3137 129.168 80.7111 129.452C80.8956 129.466 81.0801 129.551 81.1653 129.75C81.9459 130.247 82.8116 130.616 83.7484 130.786C85.4657 131.084 86.9702 130.573 88.2759 129.523C90.9158 127.394 92.4202 124.271 95.0033 122.1C95.202 121.93 95.5711 121.873 95.7698 122.1C96.3091 122.739 96.8485 123.349 97.4304 123.959C99.5309 126.145 102.043 128.146 104.839 129.48C105.634 129.863 106.471 130.161 107.294 130.488C107.777 130.687 108.16 130.97 108.43 131.41C108.87 132.163 109.125 133.043 109.423 133.852C110.02 135.455 110.516 137.088 110.928 138.748C111.354 140.451 111.751 142.154 112.262 143.843C112.773 145.518 113.44 147.122 114.249 148.683C115.526 151.139 116.733 153.622 118.209 155.964C119.614 158.178 121.317 160.634 123.957 161.613C127.065 162.777 130.557 162.138 133.693 161.443C136.461 160.847 139.229 160.25 141.897 159.314C144.224 158.505 146.524 157.412 148.312 155.751C150.072 154.119 151.051 152.019 151.307 149.719C151.009 149.762 150.725 149.776 150.427 149.776Z" fill="#E08F8A" stroke="#E08F8A" stroke-miterlimit="10"/>
<path d="M65.9087 123.915C66.7035 126.002 68.6054 126.442 70.195 126.47C71.4865 126.484 72.778 126.399 73.9561 125.789C75.1341 125.179 76.1986 123.986 76.6385 122.283C75.8437 125.179 74.0696 127.364 71.9407 128.06C70.3795 128.571 68.3641 127.989 67.6119 125.817" fill="#E08F8A"/>
<path d="M63.8501 124.483C64.4462 125.974 65.3972 127.251 66.9158 127.904C68.2499 128.486 69.6692 128.642 71.1169 128.585C72.9903 128.5 74.7077 128.017 76.1837 126.839C77.4327 125.832 78.2701 124.384 78.6959 122.851C78.994 121.773 78.3269 120.481 77.2057 120.226C76.0702 119.97 74.9064 120.566 74.5799 121.716C74.4948 122 74.4238 122.269 74.3245 122.539C74.2677 122.681 74.2251 122.88 74.1399 123.022C74.2819 122.78 74.2252 122.837 74.1116 123.05C73.8703 123.561 73.5864 124.029 73.26 124.498C73.0897 124.753 73.2317 124.455 73.3168 124.427C73.26 124.441 73.0755 124.725 73.0329 124.767C72.8768 124.952 72.7065 125.122 72.522 125.292C72.4369 125.378 72.3375 125.449 72.2524 125.519C72.0678 125.704 72.6213 125.278 72.2949 125.491C72.082 125.633 71.8833 125.761 71.6562 125.888C71.6136 125.917 71.3724 126.002 71.3582 126.03C71.4008 125.931 71.8266 125.86 71.4433 125.988C71.344 126.016 71.2588 126.045 71.1595 126.073C71.0885 126.087 70.7053 126.144 71.0885 126.101C71.4717 126.059 71.1027 126.101 71.0176 126.101C70.904 126.101 70.7763 126.101 70.6628 126.101C70.2937 126.101 71.0459 126.215 70.8046 126.13C70.7195 126.101 70.6059 126.087 70.5066 126.059C70.4072 126.03 70.3079 125.988 70.2086 125.959C69.9815 125.888 70.6201 126.201 70.3221 125.988C70.2511 125.945 70.1375 125.86 70.0524 125.818C69.8395 125.747 70.3789 126.13 70.1234 125.874C70.0241 125.775 69.9389 125.69 69.8395 125.59C69.5841 125.321 69.9956 125.86 69.8821 125.633C69.8253 125.534 69.7543 125.42 69.6976 125.321C69.4847 124.952 69.8254 125.718 69.6692 125.25C69.286 124.214 68.2073 123.391 67.0435 123.76C66.0216 124.086 65.1417 125.264 65.5533 126.385C66.1919 128.088 67.299 129.394 69.0163 130.033C70.3505 130.53 71.8407 130.402 73.1181 129.862C76.0276 128.642 77.8443 125.789 78.6675 122.837C77.305 122.454 75.9283 122.085 74.5658 121.702C74.5232 121.844 74.4806 121.985 74.438 122.127C74.3671 122.34 74.3103 122.44 74.438 122.184C74.3245 122.425 74.1967 122.667 74.0406 122.908C74.0122 122.965 73.7426 123.334 73.9271 123.078C74.1258 122.823 73.8419 123.163 73.7993 123.22C73.6858 123.334 73.4161 123.703 73.26 123.731C73.4019 123.703 73.5865 123.518 73.2884 123.689C73.1891 123.745 73.0897 123.816 72.9903 123.873C72.9336 123.901 72.5362 124.1 72.7775 123.987C73.0188 123.873 72.5078 124.072 72.5078 124.072C72.2098 124.171 71.9117 124.228 71.6137 124.285C71.9117 124.228 71.7556 124.271 71.5427 124.285C71.3866 124.299 71.2446 124.313 71.0885 124.313C70.5776 124.341 70.0666 124.341 69.5557 124.299C69.4705 124.285 69.3854 124.27 69.3144 124.27C69.8821 124.27 69.5841 124.299 69.3854 124.27C69.2008 124.228 69.0163 124.171 68.8318 124.129C68.4628 124.029 68.8318 124.072 68.917 124.185C68.8744 124.143 68.6899 124.072 68.6331 124.043C68.5337 123.987 68.4487 123.93 68.3493 123.873C67.9945 123.674 68.5622 124.1 68.406 123.93C68.3351 123.845 68.2358 123.76 68.1648 123.689C67.8809 123.447 68.3209 123.944 68.179 123.731C68.108 123.632 68.037 123.532 67.9803 123.419C67.9235 123.305 67.7389 122.88 67.9234 123.348C67.5119 122.312 66.49 121.474 65.2978 121.858C64.3469 122.184 63.4101 123.376 63.8501 124.483Z" fill="#E08F8A"/>
<path d="M93.7832 121.813C97.814 124.07 101.987 126.057 106.287 127.746C104.357 127.32 102.441 126.895 100.511 126.469C102.54 127.959 105.166 128.64 107.664 128.328" fill="#E08F8A"/>
<path d="M92.7043 123.645C96.8912 125.987 101.248 128.031 105.719 129.79C106.102 128.428 106.471 127.051 106.855 125.689C104.924 125.263 103.008 124.837 101.078 124.411C100.042 124.184 98.9776 124.638 98.566 125.646C98.1544 126.682 98.5517 127.676 99.4317 128.3C101.774 129.975 104.797 130.77 107.664 130.443C108.771 130.316 109.849 129.549 109.793 128.314C109.75 127.264 108.842 126.044 107.664 126.185C105.322 126.455 103.505 126.001 101.589 124.624C101.036 125.916 100.496 127.222 99.9426 128.513C101.873 128.939 103.789 129.365 105.719 129.79C106.798 130.032 108.075 129.464 108.345 128.3C108.629 127.08 107.976 126.115 106.855 125.675C102.781 124.071 98.7363 122.14 94.8616 119.969C93.8539 119.401 92.534 119.728 91.9521 120.735C91.3702 121.715 91.6966 123.091 92.7043 123.645Z" fill="#E08F8A"/>
<path d="M127.235 129.875C126.923 129.08 126.639 128.285 126.27 127.519C126.142 127.235 126 126.965 125.83 126.71C125.66 126.44 125.773 126.582 125.546 126.369C125.333 126.156 125.504 126.284 125.206 126.114C125.021 126.014 124.822 125.929 124.624 125.844C124.255 125.688 123.417 125.418 122.892 125.22C122.764 125.163 122.622 125.12 122.495 125.063C122.963 128.016 123.091 131.01 122.991 133.991C122.622 144.281 119.032 160.375 107.436 160.702C108.784 162.008 110.445 162.944 112.205 163.512C120.834 166.266 134.062 161.17 132.884 149.844C132.841 149.419 132.997 149.12 133.253 148.95C132.33 145.842 131.507 142.691 130.599 139.583C129.648 136.276 128.484 133.068 127.235 129.875Z" fill="#E08F8A" stroke="#E08F8A" stroke-miterlimit="10"/>
<path d="M102.965 161.296C117.243 165.256 133.054 163.34 145.97 156.073L102.965 161.296Z" fill="#E08F8A"/>
<path d="M102.397 163.355C117.328 167.414 133.522 165.427 147.048 157.919C149.447 156.585 147.304 152.909 144.905 154.243C132.358 161.212 117.385 163.014 103.533 159.253C100.893 158.529 99.7572 162.631 102.397 163.355Z" fill="#E08F8A"/>
<path d="M94.0527 123.062C94.294 124.708 95.7417 125.9 97.2177 126.667C100.255 128.242 103.874 128.696 107.21 127.915" fill="#E08F8A"/>
<path d="M92.0091 123.629C92.5485 126.752 95.7276 128.526 98.4385 129.505C101.419 130.57 104.698 130.669 107.777 129.974C108.87 129.732 109.608 128.412 109.268 127.348C108.899 126.213 107.82 125.602 106.642 125.858C106.344 125.929 106.046 125.985 105.748 126.042C105.663 126.056 105.407 126.085 105.634 126.056C105.478 126.071 105.336 126.085 105.18 126.099C104.57 126.156 103.96 126.17 103.349 126.142C102.185 126.099 101.277 125.943 99.9856 125.531C99.7017 125.432 99.4037 125.333 99.1198 125.219C98.765 125.077 99.3327 125.318 98.992 125.162C98.8501 125.105 98.7082 125.035 98.5805 124.964C98.0979 124.722 97.6296 124.453 97.1896 124.155C96.9199 123.97 97.4025 124.339 97.1612 124.126C97.0618 124.041 96.9625 123.956 96.8631 123.871C96.7638 123.786 96.6786 123.686 96.5934 123.601C96.565 123.573 96.3238 123.275 96.4515 123.445C96.5935 123.629 96.1251 122.891 96.2386 123.118C96.338 123.317 96.1961 122.991 96.1819 122.934C96.1393 122.778 96.1109 122.636 96.0825 122.466C95.8838 121.373 94.4787 120.649 93.4569 120.975C92.3072 121.387 91.7963 122.451 92.0091 123.629Z" fill="#E08F8A"/>
<path d="M74.182 139.145C74.1394 139.174 74.0968 139.202 74.0542 139.23C71.7692 140.323 70.7331 142.878 70.6054 145.447C70.506 147.505 70.8467 150.301 72.2518 151.862C73.955 153.778 77.049 152.785 78.1986 150.769C79.5186 148.442 79.0502 145.475 78.2412 143.048C77.6167 141.146 76.3819 138.592 74.182 139.145Z" fill="#F1F1F1"/>
<path d="M78.5962 143.077C78.0853 141.672 77.3898 140.083 76.2118 139.103C75.5589 138.564 74.7216 138.493 73.9835 138.11C73.359 137.784 72.9617 137.273 72.6068 136.676C72.252 136.095 71.9682 135.357 71.4572 134.902C71.443 134.902 71.4288 134.902 71.4146 134.902C71.4146 134.945 71.4146 134.988 71.4288 135.03C71.7269 135.924 72.0959 136.719 72.5642 137.542C72.5926 137.599 72.621 137.642 72.6352 137.698C72.8765 138.053 72.8765 138.592 72.4081 138.891C71.8404 139.26 71.2017 139.288 70.5489 139.146C70.2366 139.075 69.9385 138.962 69.6405 138.862C69.5553 138.834 69.3566 138.805 69.1863 138.777C69.2573 138.876 69.3282 138.976 69.3424 138.99C69.6263 139.274 69.9811 139.6 70.3786 139.685C71.1875 139.884 71.0881 140.906 70.5062 141.218C70.4353 141.885 70.0521 142.453 69.2715 142.666C68.9876 142.737 68.7038 142.765 68.4199 142.765C68.8315 142.964 69.2573 143.134 69.6689 143.333C70.2224 143.617 70.1656 144.241 69.825 144.596C69.7398 145.121 69.6263 145.689 69.7399 146.186C69.7824 146.143 69.8392 146.086 69.8817 146.044C70.123 145.717 70.2792 145.32 70.4353 144.951C70.4779 144.837 70.5488 144.738 70.6198 144.653C70.8185 143.872 71.1308 143.148 71.4288 142.41C71.6559 141.843 71.7836 141.204 72.0958 140.665C72.3655 140.21 72.8623 139.742 73.4016 139.657C73.9694 139.572 74.3242 139.955 74.7358 140.267C75.2325 140.636 75.2893 141.332 74.7358 141.687C73.4726 142.51 73.4584 144.582 73.43 145.916C73.4016 147.293 73.359 148.769 73.5578 150.131C73.6997 151.096 74.0261 152.53 75.1047 152.871C76.4105 153.282 77.7588 152.204 78.3975 151.167C79.9019 148.669 79.533 145.675 78.5962 143.077ZM77.0492 151.21C76.9073 151.352 76.7938 151.508 76.6093 151.622C76.297 151.806 75.9706 151.764 75.6157 151.707C75.4454 151.678 75.2893 151.536 75.19 151.409C75.0764 151.267 75.0054 151.096 75.0196 150.912C75.0338 150.6 75.1332 150.302 75.3603 150.103C75.4454 150.004 75.5447 149.947 75.6583 149.89C75.6441 149.904 75.6157 149.904 75.6015 149.918C75.786 149.833 75.9422 149.72 76.1551 149.691C76.4957 149.649 76.8363 149.777 77.0634 150.06C77.2053 150.245 77.2905 150.415 77.3047 150.642C77.3047 150.841 77.1912 151.068 77.0492 151.21ZM76.9073 148.57C76.4389 149.038 75.7292 149.081 75.3035 148.542C75.0054 148.173 74.8919 147.733 74.8635 147.264C74.5938 146.526 74.4093 145.703 74.4377 144.923C74.4661 144.227 74.7215 143.177 75.488 142.936C76.1976 142.723 76.6518 143.319 76.8505 143.901C77.0918 144.61 77.2905 145.405 77.4466 146.143C77.6027 146.995 77.5601 147.931 76.9073 148.57Z" fill="#5B5B5B"/>
<path d="M97.586 136.463C97.4299 136.491 97.2738 136.477 97.1461 136.435C95.1591 137.428 94.194 140.593 93.9953 142.523C93.7114 145.149 94.7333 147.959 97.2312 149.265C98.2105 149.776 99.7292 150.216 100.779 149.634C101.759 149.081 102.355 147.675 102.724 146.696C103.575 144.439 102.639 141.672 101.745 139.529C101.021 137.769 99.7718 136.122 97.586 136.463Z" fill="#F1F1F1"/>
<path d="M102.609 140.095C102.098 138.69 101.403 137.1 100.225 136.121C99.5721 135.582 98.7347 135.511 97.9967 135.128C97.3722 134.801 96.9749 134.29 96.62 133.694C96.2652 133.112 95.9814 132.374 95.4704 131.92C95.4562 131.92 95.442 131.92 95.4278 131.92C95.4278 131.963 95.4278 132.005 95.442 132.048C95.74 132.942 96.109 133.737 96.5774 134.56C96.6058 134.617 96.6343 134.659 96.6484 134.716C96.8897 135.071 96.8897 135.61 96.4213 135.908C95.8536 136.277 95.2149 136.306 94.562 136.164C94.2498 136.093 93.9517 135.979 93.6537 135.88C93.5685 135.851 93.3698 135.823 93.1995 135.795C93.2705 135.894 93.3415 135.993 93.3557 136.007C93.6395 136.291 93.9943 136.618 94.3917 136.703C95.2007 136.902 95.1014 137.924 94.5195 138.236C94.4485 138.903 94.0653 139.471 93.2847 139.683C93.0009 139.754 92.717 139.783 92.4331 139.783C92.8447 139.981 93.2705 140.152 93.6821 140.351C94.2356 140.634 94.1788 141.259 93.8382 141.614C93.753 142.139 93.6395 142.707 93.753 143.203C93.7956 143.161 93.8524 143.104 93.895 143.061C94.1363 142.735 94.2924 142.338 94.4485 141.969C94.4911 141.855 94.562 141.756 94.633 141.67C94.8317 140.89 95.1439 140.166 95.442 139.428C95.6691 138.86 95.7969 138.222 96.1091 137.682C96.3788 137.228 96.8755 136.76 97.4148 136.675C97.9825 136.589 98.3374 136.973 98.749 137.285C99.2457 137.654 99.3025 138.349 98.749 138.704C97.4858 139.527 97.4716 141.599 97.4432 142.934C97.4149 144.31 97.3722 145.786 97.5709 147.149C97.7129 148.114 98.0393 149.548 99.118 149.888C100.424 150.3 101.772 149.221 102.411 148.185C103.915 145.687 103.546 142.692 102.609 140.095ZM101.077 148.228C100.935 148.369 100.821 148.526 100.637 148.639C100.324 148.824 99.998 148.781 99.6431 148.724C99.4728 148.696 99.3167 148.554 99.2174 148.426C99.1038 148.284 99.0329 148.114 99.0471 147.93C99.0612 147.617 99.1606 147.319 99.3877 147.121C99.4728 147.021 99.5721 146.964 99.6857 146.908C99.6715 146.922 99.6431 146.922 99.6289 146.936C99.8134 146.851 99.9696 146.737 100.182 146.709C100.523 146.666 100.864 146.794 101.091 147.078C101.233 147.262 101.318 147.433 101.332 147.66C101.332 147.859 101.219 148.086 101.077 148.228ZM100.92 145.588C100.452 146.056 99.7425 146.099 99.3167 145.559C99.0187 145.19 98.905 144.75 98.8767 144.282C98.607 143.544 98.4225 142.721 98.4509 141.94C98.4793 141.245 98.7347 140.194 99.5011 139.953C100.211 139.74 100.665 140.336 100.864 140.918C101.105 141.628 101.304 142.423 101.46 143.161C101.63 144.012 101.573 144.935 100.92 145.588Z" fill="#5B5B5B"/>
<path d="M123.304 148.541C133.588 148.541 141.925 140.204 141.925 129.92C141.925 119.636 133.588 111.299 123.304 111.299C113.02 111.299 104.683 119.636 104.683 129.92C104.683 140.204 113.02 148.541 123.304 148.541Z" fill="#DA7772"/>
<path d="M119.656 121.913C115.909 124 118.407 125.589 118.407 130.046C118.407 134.503 115.895 136.092 119.656 138.178C123.673 140.407 123.673 137.526 127.689 135.297C131.706 133.069 134.473 134.829 134.473 130.046C134.473 125.263 131.308 127.988 127.845 124.908C124.311 121.771 123.658 119.671 119.656 121.913Z" fill="#F9EEEB"/>
</svg>
