<svg width="83" height="20" viewBox="0 0 83 20" fill="none" xmlns="http://www.w3.org/2000/svg">
<path d="M4.28 3.46H1.62V4.82H9.46V3.46H6.88V3.06H9.98V1.68H6.88V0.9H4.28V1.68H1.06V3.06H4.28V3.46ZM11.88 9.96C12.72 9.78 13.5 9.56 14.2 9.28C14.92 9.56 15.68 9.8 16.54 9.96H11.88ZM13.42 12.38H6.58V11.92H13.42V12.38ZM6.58 16.56V16.12H13.42V16.56H6.58ZM13.42 14.48H6.58V14.02H13.42V14.48ZM15.04 6.42C14.76 6.68 14.42 6.92 14.04 7.12C13.66 6.92 13.32 6.68 13.06 6.42H15.04ZM14.68 3.12C14.72 4.1 14.94 4.72 15.78 4.94H12.3C12.92 4.4 13.22 3.78 13.34 3.12H14.68ZM4.62 6.54V7.32H3.92C3.94 7.06 3.94 6.82 3.94 6.58V6.54H4.62ZM7.36 7.32H6.6V6.54H7.36V7.32ZM17.36 5.04H17.82C18.22 5.04 18.74 5.02 19.02 4.9C18.94 4.34 18.92 3.78 18.88 3.2C18.62 3.3 18.04 3.34 17.76 3.34H17.3C17 3.34 16.98 3.14 16.98 2.8V1.28H11.24V2.28C11.24 2.96 11.04 3.52 9.48 4.04C9.72 4.2 10.08 4.58 10.4 4.94H10.38V6.42H12L10.86 6.72C11.16 7.16 11.52 7.54 11.92 7.9C11.2 8.08 10.42 8.2 9.58 8.28C9.94 8.68 10.34 9.4 10.58 9.96H3.06C3.34 9.56 3.54 9.1 3.68 8.64H9.56V5.22H1.78V6.52C1.78 7.38 1.66 8.44 0.62 9.32C0.92 9.44 1.38 9.7 1.82 9.96H1.58V11.92H3.76V16.56H1.02V18.52H13.42V19.9H16.3V18.52H18.94V16.56H16.3V11.92H18.42V9.96H17.9C18.2 9.4 18.72 8.66 19.14 8.26C18.2 8.2 17.32 8.1 16.52 7.94C17.3 7.26 17.92 6.44 18.36 5.38L17.36 5.04ZM25.34 5.38H29.74V5.86H25.34V5.38ZM25.34 3.3H29.74V3.78H25.34V3.3ZM33.3 8.26H29.26C29.16 8.02 29.04 7.78 28.92 7.56H32.62V5.42C33.3 5.96 34.04 6.72 34.46 7.28C36.4 6.06 38.36 4.32 39.76 2.32L37 1.22C36.06 2.74 34.24 4.24 32.62 5.14V1.6H22.6V7.56H27.54L26 7.86C26.06 7.98 26.12 8.12 26.18 8.26H21.76V10.44H33.3V8.26ZM37.42 6.68C36.36 8.34 34.24 10 32.5 10.96C33.22 11.5 34.06 12.36 34.5 13C36.5 11.7 38.6 9.86 40.08 7.78L37.42 6.68ZM28.92 15.92V15.24H30.5L28.92 15.92ZM23.94 15.24H26.08V17.4C26.08 17.58 26.02 17.64 25.82 17.64C25.68 17.64 25.3 17.64 24.92 17.64C25.28 17.04 25.6 16.4 25.86 15.82L23.94 15.24ZM25.68 12.74H29.46V13.42H25.68V12.74ZM32.28 15.24V10.9H23V15.24H23.42C23.02 16.16 22.38 17.18 21.76 17.88C22.3 18.24 23.26 18.98 23.7 19.4C24.02 19.02 24.38 18.5 24.72 17.96C24.98 18.56 25.24 19.32 25.34 19.92C26.4 19.92 27.28 19.9 28 19.56C28.76 19.2 28.92 18.62 28.92 17.48V16.06C29.48 17.12 30.1 18.52 30.36 19.38L32.52 18.38C32.24 17.54 31.56 16.26 30.98 15.24H32.28ZM37.72 12.18C36.58 14.44 34.38 16.34 32.16 17.44C32.88 18.04 33.72 19 34.16 19.72C36.7 18.18 38.94 15.98 40.42 13.16L37.72 12.18ZM46.2 3.72C45.4 6.1 44.04 8.76 42.72 10.38C43.42 10.68 44.68 11.34 45.26 11.76C46.5 9.96 47.98 7.08 48.96 4.46L46.2 3.72ZM55.32 4.84C56.62 6.98 58.2 9.9 58.9 11.72L61.4 10.24C60.6 8.44 59.04 5.72 57.68 3.6L55.32 4.84ZM56.44 11.26C53.98 15.44 49.02 16.64 42.36 17.08C42.9 17.82 43.46 19 43.7 19.86C50.92 19.1 56.2 17.44 59.12 12.42L56.44 11.26ZM50.32 0.939999V13.54H53.22V0.939999H50.32ZM75.88 8.3C75.24 10.18 74.4 11.66 73.3 12.82C72.26 12.36 71.2 11.9 70.16 11.46C70.56 10.5 71 9.42 71.42 8.3H75.88ZM82.14 17.12C80.64 16.32 78.6 15.3 76.34 14.22C77.58 12.68 78.52 10.74 79.22 8.3H82.06V5.16H79.98C80.06 4.74 80.12 4.3 80.2 3.86L77.08 3.14C76.98 3.84 76.86 4.52 76.72 5.16H72.52C72.94 3.86 73.32 2.54 73.6 1.26L70.46 0.819999C70.12 2.22 69.68 3.68 69.16 5.16H64.04V8.3H67.94C67.24 9.98 66.48 11.56 65.76 12.84C67.34 13.48 68.94 14.18 70.48 14.92C68.66 15.88 66.36 16.5 63.5 16.94C64.18 17.7 64.9 18.92 65.22 19.78C68.84 19.08 71.64 18.1 73.82 16.58C76.2 17.8 78.32 19 79.88 19.94L82.14 17.12Z" fill="#E9706E"/>
</svg>
